<svg xmlns="http://www.w3.org/2000/svg" viewBox="0 0 163.95 55.99"><defs><style>.cls-1{fill:#2b2b2b;}.cls-2{fill:none;stroke:#fff;stroke-miterlimit:10;stroke-width:2px;}.cls-3{fill:#fff;}</style></defs><g id="Champions"><rect class="cls-1" x="3.51" y="1.99" width="156.92" height="52" rx="8"/><line class="cls-2" x1="60.54" y1="10.7" x2="60.54" y2="45.88"/><path class="cls-3" d="M75.44,14.78a3.73,3.73,0,0,1,1.11,2.86,3.75,3.75,0,0,1-1.11,2.87,4.3,4.3,0,0,1-3,1H69.93v3.39H68.5V13.74h3.89A4.3,4.3,0,0,1,75.44,14.78Zm-1,4.73a2.38,2.38,0,0,0,.71-1.87,2.36,2.36,0,0,0-.71-1.86,3,3,0,0,0-2.06-.65H69.93v5h2.42A3,3,0,0,0,74.41,19.51Z"/><path class="cls-3" d="M80.56,24.32a5.22,5.22,0,0,1-1.9-2.05,6.57,6.57,0,0,1,0-5.86,5.22,5.22,0,0,1,1.9-2.05,5.18,5.18,0,0,1,7.32,2,6.19,6.19,0,0,1,.69,2.94,6.19,6.19,0,0,1-.69,2.94,5.22,5.22,0,0,1-7.32,2Zm4.7-1.24a3.9,3.9,0,0,0,1.38-1.54,5.09,5.09,0,0,0,0-4.4,3.9,3.9,0,0,0-1.38-1.54,3.78,3.78,0,0,0-4,0,3.8,3.8,0,0,0-1.4,1.54,5.09,5.09,0,0,0,0,4.4,3.8,3.8,0,0,0,1.4,1.54,3.78,3.78,0,0,0,4,0Z"/><path class="cls-3" d="M104.52,13.74l-3.34,11.2H99.69L97,16l-2.72,8.94H92.73l-3.34-11.2h1.47l2.69,9.1,2.81-9.1h1.31l2.74,9.15,2.75-9.15Z"/><path class="cls-3" d="M113.49,23.55v1.39h-7.24V13.74h7v1.39h-5.61v3.44h5v1.36h-5v3.62Z"/><path class="cls-3" d="M122.46,24.94l-2.15-3.44-.63,0h-2.46v3.41h-1.43V13.74h3.89a4.3,4.3,0,0,1,3,1,3.73,3.73,0,0,1,1.11,2.86,4.08,4.08,0,0,1-.57,2.21,3.28,3.28,0,0,1-1.62,1.33L124,24.94Zm-.76-5.42a2.43,2.43,0,0,0,.72-1.88,2.37,2.37,0,0,0-.72-1.86,3,3,0,0,0-2.06-.65h-2.42v5h2.42A3,3,0,0,0,121.7,19.52Z"/><path class="cls-3" d="M133.38,23.55v1.39h-7.23V13.74h7v1.39h-5.61v3.44h5v1.36h-5v3.62Z"/><path class="cls-3" d="M135.69,13.74h4.2a5.49,5.49,0,0,1,2.8.7,4.92,4.92,0,0,1,1.91,2,6.14,6.14,0,0,1,.67,2.92,6.14,6.14,0,0,1-.67,2.92,4.92,4.92,0,0,1-1.91,2,5.49,5.49,0,0,1-2.8.7h-4.2Zm4.11,9.81a4.21,4.21,0,0,0,2.13-.53,3.62,3.62,0,0,0,1.42-1.48,5.09,5.09,0,0,0,0-4.4,3.56,3.56,0,0,0-1.42-1.48,4.21,4.21,0,0,0-2.13-.53h-2.69v8.42Z"/><path class="cls-3" d="M76.58,39.32a3.06,3.06,0,0,1,.49,1.8,2.72,2.72,0,0,1-1,2.24,4.47,4.47,0,0,1-2.84.78H68.5V32.94H73a4.1,4.1,0,0,1,2.65.77,2.61,2.61,0,0,1,.93,2.13,3.08,3.08,0,0,1-.36,1.52,2.54,2.54,0,0,1-1,1A2.55,2.55,0,0,1,76.58,39.32Zm-6.65-5.08v3.58h2.92a2.65,2.65,0,0,0,1.68-.46A1.56,1.56,0,0,0,75.12,36a1.58,1.58,0,0,0-.59-1.34,2.71,2.71,0,0,0-1.68-.45ZM75,42.4A1.65,1.65,0,0,0,75.64,41c0-1.25-.82-1.87-2.44-1.87H69.93v3.72H73.2A3.17,3.17,0,0,0,75,42.4Z"/><path class="cls-3" d="M82.88,40.27v3.87H81.47v-3.9l-4-7.3H79l3.19,5.9,3.2-5.9h1.41Z"/><path class="cls-3" d="M54.84,27.49a21.91,21.91,0,1,1-22.5-21.3h.3A21.83,21.83,0,0,1,54.84,27.49ZM26.94,31a4.1,4.1,0,0,0,.6-5.7c0-.1-.1-.1-.1-.2-1.8-1.9-3.6-3.6-5.4-5.5-.3-.3-.5-.6-.7-.8a38.33,38.33,0,0,0-2.9,2.8,4.09,4.09,0,0,0,.5,5.7l1.8-1.7c-1-1.3-.8-2.2.5-3.1,1.5,1.5,3,2.9,4.5,4.4a.37.37,0,0,1,.1.3,1.67,1.67,0,0,1-.5,2Zm17.8,2.3c-1.5-1.4-2.9-2.9-4.4-4.4a1.21,1.21,0,0,1-.3-1,8.8,8.8,0,0,1,.5-1.5l-1.7-1.7-.2.2a4.23,4.23,0,0,0,0,5.9l.2.2c1.9,1.9,3.8,3.7,5.6,5.6.1.1.2.2.3.2a34.39,34.39,0,0,0,2.7-2.7,4.11,4.11,0,0,0-.4-5.8L45.34,30c.9,1.5.8,2.2-.6,3.3ZM33.34,14l.9.9a6.47,6.47,0,0,1,.8.9c1.3-1.1,2.2-1,3.3.4-.1.1-.2.3-.4.4-1.2,1.2-2.4,2.3-3.5,3.5s-1.7,1.1-2.8.2l-1.8,1.8a4.26,4.26,0,0,0,6,.3l.1-.1c2-1.9,3.9-3.9,5.9-5.9.1-.1.1-.2.2-.3l-2.4-2.4a4.35,4.35,0,0,0-6,0ZM36,33.69a4.23,4.23,0,0,0-5.9-.4h0c-1.3,1.2-2.5,2.4-3.7,3.6l-2.6,2.6c.9.9,1.8,1.9,2.7,2.8a3.83,3.83,0,0,0,3.4.9,3.75,3.75,0,0,0,2.5-1.4,12.09,12.09,0,0,1-1.6-1.6l-.2-.2c-1.4,1-2.3.8-3.2-.5l4.3-4.3a1.67,1.67,0,0,1,1.5-.4,2.07,2.07,0,0,1,1,.6Zm2.4,5.9c-1.2,1.5-2.3,1.6-3.5.3-1-1.1-2-2.1-3.1-3.1l-.3-.3-1.6,1.6c1.4,1.5,2.7,3,4.2,4.4a3.91,3.91,0,0,0,4.7.2c1.1-.9,2.2-1.9,3.2-2.9l-3.2-3.1L37,38.49Zm-2.4-22c-1.4-1.4-2.7-2.8-4.1-4.1a3.94,3.94,0,0,0-5.1-.2,39.74,39.74,0,0,0-3,2.8l3.2,3.2,1.8-1.8a4.35,4.35,0,0,0-.7-.6,7,7,0,0,0-.9-.6,7.37,7.37,0,0,1,.6-.5,1.74,1.74,0,0,1,2.4-.3l.3.3,1.2,1.2,2.4,2.4ZM43.24,31a57,57,0,0,0,4.3-4.2,4.09,4.09,0,0,0,0-5.3,32.51,32.51,0,0,0-2.7-2.6L41.74,22l1.8,1.8,1.3-1.4c.2.2.3.4.4.5a1.62,1.62,0,0,1,.3,2.3l-.3.3L44,26.69l-2.5,2.5c.1.1.1.2.2.2.5.6,1,1.1,1.5,1.6Zm-22.1,2.4c-.2-.2-.3-.4-.5-.5a1.73,1.73,0,0,1-.4-2.4.78.78,0,0,1,.4-.4c.9-.9,1.8-1.8,2.7-2.6a7.64,7.64,0,0,0,.9-.9l-1.9-1.8c-1.2,1.2-2.5,2.5-3.8,3.7a4.09,4.09,0,0,0-.4,5.2,28.91,28.91,0,0,0,2.9,3.2l3.1-3.1-1.8-1.7Zm7.5.4-5.3-5.3-1.7,1.6,5.4,5.3Zm6.5,5.3,5.4-5.4-1.6-1.6-5.4,5.4Zm-4.4-22.4-5.5,5.4,1.6,1.6,5.5-5.4Zm6.4,5.3,5.3,5.3,1.6-1.6-5.3-5.3Z"/><path class="cls-3" d="M93.52,43.85A5.93,5.93,0,0,1,91.6,43l.85-1.88a5.92,5.92,0,0,0,1.65.82,6.2,6.2,0,0,0,1.91.3,3.07,3.07,0,0,0,1.58-.31,1,1,0,0,0,.5-.84.76.76,0,0,0-.3-.64A2,2,0,0,0,97,40c-.31-.1-.74-.22-1.27-.34a16.06,16.06,0,0,1-2-.59,3.18,3.18,0,0,1-1.35-.94,2.55,2.55,0,0,1-.56-1.72,3,3,0,0,1,.51-1.71,3.44,3.44,0,0,1,1.53-1.21A6.33,6.33,0,0,1,96.37,33a8.65,8.65,0,0,1,2,.24,6.31,6.31,0,0,1,1.72.71l-.77,1.9a6.08,6.08,0,0,0-3-.85,2.78,2.78,0,0,0-1.55.34,1,1,0,0,0-.5.89.88.88,0,0,0,.58.83,9.9,9.9,0,0,0,1.76.53,15.59,15.59,0,0,1,2,.59,3.32,3.32,0,0,1,1.35.92,2.42,2.42,0,0,1,.56,1.71,2.92,2.92,0,0,1-.51,1.69,3.48,3.48,0,0,1-1.55,1.21A6.37,6.37,0,0,1,96,44.2,9.06,9.06,0,0,1,93.52,43.85Z"/><path class="cls-3" d="M101.47,34.18a1.29,1.29,0,0,1-.42-1,1.27,1.27,0,0,1,.42-.95,1.49,1.49,0,0,1,1.08-.39,1.58,1.58,0,0,1,1.08.37,1.21,1.21,0,0,1,.42.93,1.34,1.34,0,0,1-.42,1,1.49,1.49,0,0,1-1.08.39A1.53,1.53,0,0,1,101.47,34.18Zm-.12,1.54h2.4V44h-2.4Z"/><path class="cls-3" d="M113.77,35.72v6.9a4.41,4.41,0,0,1-1.19,3.4,4.88,4.88,0,0,1-3.46,1.11,8.89,8.89,0,0,1-2.29-.3,4.94,4.94,0,0,1-1.78-.84l1-1.73a4.22,4.22,0,0,0,1.33.69,5.45,5.45,0,0,0,1.6.25,2.61,2.61,0,0,0,1.84-.56,2.24,2.24,0,0,0,.6-1.7v-.36a3.35,3.35,0,0,1-2.62,1,4.33,4.33,0,0,1-2.09-.5,3.86,3.86,0,0,1-1.51-1.41,4.27,4.27,0,0,1,0-4.19,3.86,3.86,0,0,1,1.51-1.41,4.33,4.33,0,0,1,2.09-.5,3.27,3.27,0,0,1,2.74,1.18V35.72Zm-3,5.36a2.09,2.09,0,0,0,0-2.95,2.48,2.48,0,0,0-3.14,0,2.06,2.06,0,0,0,0,2.95,2.26,2.26,0,0,0,1.57.56,2.21,2.21,0,0,0,1.57-.57Z"/><path class="cls-3" d="M122.77,36.52a3.65,3.65,0,0,1,.94,2.74V44h-2.4V39.63a2.16,2.16,0,0,0-.43-1.47,1.58,1.58,0,0,0-1.25-.48,1.91,1.91,0,0,0-1.45.56,2.32,2.32,0,0,0-.54,1.67V44h-2.4V35.72h2.29v1a3.36,3.36,0,0,1,1.19-.81,4.18,4.18,0,0,1,1.56-.28A3.42,3.42,0,0,1,122.77,36.52Z"/><path class="cls-3" d="M133.47,35.72V44h-2.28V43a3.23,3.23,0,0,1-1.14.82,3.69,3.69,0,0,1-1.43.29A3.53,3.53,0,0,1,126,43.2a3.75,3.75,0,0,1-1-2.79V35.72h2.4v4.33c0,1.34.57,2,1.69,2a1.81,1.81,0,0,0,1.38-.57,2.41,2.41,0,0,0,.53-1.67v-4.1Z"/><path class="cls-3" d="M148,36.51a3.75,3.75,0,0,1,.92,2.76V44h-2.41V39.64a2.28,2.28,0,0,0-.4-1.48,1.45,1.45,0,0,0-1.17-.48,1.74,1.74,0,0,0-1.34.55,2.32,2.32,0,0,0-.49,1.62V44h-2.41V39.64c0-1.31-.52-2-1.57-2a1.72,1.72,0,0,0-1.33.55,2.36,2.36,0,0,0-.49,1.62V44h-2.4v-8.3h2.29v1a3,3,0,0,1,1.14-.8,3.67,3.67,0,0,1,1.47-.28,3.51,3.51,0,0,1,1.59.35,2.78,2.78,0,0,1,1.14,1,3.41,3.41,0,0,1,1.28-1,4,4,0,0,1,1.71-.35A3.32,3.32,0,0,1,148,36.51Z"/></g></svg>